<svg width="238" height="89" viewBox="0 0 238 89" fill="none" xmlns="http://www.w3.org/2000/svg">
<path fill-rule="evenodd" clip-rule="evenodd" d="M31.0072 85.3312V87.6865H0V85.3312C3.06132 85.1198 5.11482 84.4782 6.16052 83.4062C7.20622 82.3343 7.72907 80.1526 7.72907 76.8613V35.8705C7.72907 32.3678 7.19864 30.1559 6.13779 29.235C5.07694 28.314 3.03101 27.6874 0 27.3553V25H29.9615C37.9027 25 43.942 26.2833 48.0793 28.85C52.2167 31.4166 54.2853 35.8252 54.2853 42.0757C54.2853 45.1255 53.4745 47.9866 51.8529 50.6589C50.2314 53.3312 47.5565 55.4827 43.8284 57.1132C41.0095 58.2607 38.1907 58.9552 35.3718 59.1967C32.553 59.4383 28.3702 59.5591 22.8235 59.5591V76.8613C22.8235 80.2734 23.3994 82.5079 24.5512 83.5648C25.7029 84.6216 27.855 85.2104 31.0072 85.3312ZM22.8235 31.4317V56.3432C28.3702 56.2527 32.0681 55.6185 33.917 54.4409C36.857 52.5688 38.3271 48.5376 38.3271 42.3475C38.3271 38.1201 37.6148 34.708 36.1902 32.1111C34.7656 29.5143 32.0377 28.2159 28.0065 28.2159C26.1576 28.2159 24.8315 28.4348 24.0283 28.8726C23.2251 29.3105 22.8235 30.1635 22.8235 31.4317ZM78.6181 89C81.8006 89 84.6195 88.4112 87.0746 87.2335C90.8633 85.3916 94.1974 82.1154 97.0769 77.4048L94.94 76.0913C93.1821 78.0238 91.712 79.3977 90.5299 80.213C88.5901 81.5718 86.529 82.2512 84.3467 82.2512C79.7699 82.2512 76.5721 79.6997 74.7535 74.5966C73.7533 71.879 73.1471 68.6631 72.9349 64.949H96.6677C96.6677 64.1036 96.5616 62.8806 96.3495 61.2803C95.9251 57.8681 95.1674 55.0901 94.0762 52.9462C92.6213 50.1078 90.5451 47.8884 87.8475 46.288C85.1499 44.6877 82.2704 43.8875 79.2091 43.8875C73.8442 43.8875 69.2598 45.8577 65.4559 49.7983C61.652 53.7389 59.7501 59.2722 59.7501 66.3984C59.7501 74.2795 61.7505 80.0168 65.7514 83.6101C69.7524 87.2034 74.0413 89 78.6181 89ZM72.7076 61.5067H85.2105C85.1499 56.0413 84.7256 52.2215 83.9375 50.0474C83.1494 47.8733 81.5733 46.7863 79.2091 46.7863C76.7843 46.7863 75.1248 48.0394 74.2307 50.5456C73.3365 53.0519 72.8288 56.7056 72.7076 61.5067ZM136.277 89C137.823 89 139.293 88.7282 140.687 88.1847C142.899 87.3392 144.915 85.8596 146.734 83.7459L145.324 81.7983C144.718 82.4022 144.271 82.7721 143.983 82.908C143.695 83.0439 143.369 83.1118 143.006 83.1118C142.581 83.1118 142.195 82.8778 141.846 82.4098C141.498 81.9417 141.323 81.3756 141.323 80.7113V58.2456C141.323 52.7499 139.565 48.9755 136.049 46.9222C132.503 44.899 128.093 43.8875 122.819 43.8875C117.909 43.8875 113.772 44.9292 110.407 47.0127C107.043 49.0962 105.36 51.9196 105.36 55.4827C105.36 57.4756 105.989 59.0005 107.247 60.0573C108.505 61.1142 110.028 61.6426 111.817 61.6426C113.362 61.6426 114.719 61.167 115.886 60.2159C117.053 59.2647 117.636 57.9134 117.636 56.1621C117.636 55.4676 117.507 54.8108 117.25 54.1918C116.992 53.5728 116.651 53.0066 116.227 52.4933L115.681 51.8592C115.439 51.5874 115.257 51.3307 115.135 51.0892C115.014 50.8476 114.954 50.5456 114.954 50.1833C114.954 49.2472 115.492 48.4697 116.568 47.8507C117.644 47.2317 119.015 46.9222 120.682 46.9222C123.653 46.9222 125.721 47.5789 126.888 48.8924C128.055 50.2059 128.639 52.2366 128.639 54.9844V61.7332C120.031 64.2092 113.711 66.6702 109.68 69.1161C105.648 71.5619 103.633 74.8684 103.633 79.0354C103.633 82.4475 104.739 84.9613 106.952 86.5768C109.164 88.1923 111.544 89 114.09 89C115.999 89 117.939 88.6678 119.909 88.0035C123.152 86.9467 126.062 85.1349 128.639 82.5683C128.972 84.3498 129.502 85.6936 130.23 86.5994C131.503 88.1998 133.519 89 136.277 89ZM118.568 80.8245C119.493 81.8662 120.531 82.3871 121.682 82.3871C123.198 82.3871 124.607 81.9342 125.911 81.0283C126.638 80.4848 127.502 79.6393 128.502 78.4919V64.949C126.017 65.553 123.834 66.5041 121.955 67.8025C118.773 70.0068 117.181 72.815 117.181 76.2272C117.181 78.2503 117.644 79.7827 118.568 80.8245ZM173.794 85.4671C171.673 85.1953 170.354 84.7122 169.839 84.0177C169.324 83.3232 169.066 81.9342 169.066 79.8507V69.3425L171.112 67.0779L179.932 79.5336C180.932 80.9528 181.561 81.9266 181.819 82.4551C182.077 82.9835 182.205 83.3987 182.205 83.7006C182.205 84.2744 181.895 84.6971 181.273 84.9689C180.652 85.2406 179.675 85.4067 178.341 85.4671V87.6865H200.073V85.4671C199.528 85.3765 199.088 85.2482 198.755 85.0821C198.421 84.916 198.073 84.5763 197.709 84.063L179.705 59.3779L186.934 52.0856C188.813 50.2135 190.753 48.8849 192.753 48.0998C193.875 47.677 195.39 47.3449 197.3 47.1033V44.9745H177.341V47.1033C179.341 47.2845 180.758 47.5261 181.592 47.828C182.425 48.13 182.842 48.749 182.842 49.6851C182.842 50.0474 182.69 50.5381 182.387 51.1571C182.084 51.7761 181.584 52.4329 180.887 53.1274L169.066 64.949V25H151.607V27.2647C153.335 27.6572 154.517 28.1555 155.154 28.7594C155.79 29.3633 156.108 30.6466 156.108 32.6093V79.8507C156.108 81.904 155.767 83.2552 155.085 83.9045C154.403 84.5537 153.244 85.0745 151.607 85.4671V87.6865H173.794V85.4671ZM210.062 86.9391C209.683 87.3468 209.251 88.0337 208.766 89H206.538V73.6454H209.13C210.039 78.0842 211.736 81.217 214.222 83.0439C216.707 84.8707 219.253 85.7841 221.86 85.7841C224.254 85.7841 226.012 85.2482 227.134 84.1762C228.255 83.1043 228.816 81.6926 228.816 79.9413C228.816 78.2805 228.21 76.8613 226.997 75.6837C226.331 75.0495 225.255 74.3701 223.769 73.6454L216.859 70.2937C213.222 68.5121 210.615 66.5796 209.039 64.4961C207.432 62.4126 206.629 59.9516 206.629 57.1132C206.629 53.5199 207.887 50.4173 210.403 47.8054C212.918 45.1934 216.434 43.8875 220.951 43.8875C222.921 43.8875 225.012 44.2121 227.225 44.8613C229.437 45.5105 230.817 45.8351 231.362 45.8351C232.12 45.8351 232.658 45.6766 232.976 45.3595C233.294 45.0425 233.56 44.5971 233.772 44.0234H235.818V57.4303H233.453C232.574 54.2899 231.135 51.7686 229.134 49.8662C227.134 47.9639 224.8 47.0127 222.133 47.0127C220.072 47.0127 218.533 47.5865 217.518 48.7339C216.503 49.8813 215.995 51.1194 215.995 52.448C215.995 53.535 216.45 54.6221 217.359 55.7091C218.238 56.8264 219.905 57.9738 222.36 59.1515L227.452 61.5973C230.604 63.1071 232.908 64.5716 234.363 65.9908C236.788 68.4065 238 71.3808 238 74.9137C238 78.356 236.75 81.5643 234.249 84.5386C231.749 87.5129 227.998 89 222.997 89C221.754 89 220.504 88.8717 219.246 88.615C217.988 88.3583 216.434 87.913 214.585 87.2788L212.994 86.7353C212.418 86.5239 212.062 86.4032 211.926 86.373C211.789 86.3428 211.615 86.3277 211.403 86.3277C210.888 86.3277 210.441 86.5315 210.062 86.9391Z" fill="white"/>
<path fill-rule="evenodd" clip-rule="evenodd" d="M81.244 34.879V36.2406H62.5542V34.879C64.6024 34.879 65.9636 34.5517 66.6378 33.897C67.312 33.2424 67.6491 31.9375 67.6491 29.9823V1.75442C65.0889 1.82425 63.126 2.23449 61.7605 2.98514C59.2515 4.38169 57.8348 6.99151 57.5105 10.8146H56L56.0512 0H87.619L87.6702 10.8146H86.1596C85.6647 6.95659 84.248 4.34678 81.9096 2.98514C80.5954 2.23449 78.6325 1.82425 76.0211 1.75442V29.9823C76.0211 31.9549 76.3582 33.2642 77.0324 33.9101C77.7066 34.556 79.1104 34.879 81.244 34.879ZM103.108 34.9575V36.2406H90.4864V34.9575C91.4423 34.8353 92.1463 34.5691 92.5986 34.1589C93.051 33.7486 93.2771 32.9325 93.2771 31.7105V4.39915C93.2771 3.33428 93.0894 2.58799 92.7139 2.1603C92.3384 1.7326 91.5959 1.44893 90.4864 1.30927V0H100.625V15.0828C101.7 13.7561 102.831 12.7305 104.017 12.006C105.204 11.2816 106.539 10.9193 108.024 10.9193C110.038 10.9193 111.702 11.5172 113.017 12.713C114.331 13.9088 114.988 15.9469 114.988 18.8273V31.7105C114.988 32.9151 115.189 33.705 115.59 34.0803C115.991 34.4557 116.661 34.7481 117.599 34.9575V36.2406H105.285V34.9575C106.223 34.7655 106.863 34.5037 107.205 34.172C107.546 33.8403 107.717 33.0896 107.717 31.92V18.9321C107.717 17.7101 107.597 16.7936 107.358 16.1826C106.949 15.0828 106.138 14.5329 104.926 14.5329C104.022 14.5329 103.087 14.9606 102.123 15.816C101.158 16.6714 100.676 17.2562 100.676 17.5704V31.92C100.676 33.0896 100.847 33.8403 101.188 34.172C101.53 34.5037 102.17 34.7655 103.108 34.9575ZM130.605 37C132.398 37 133.985 36.6596 135.367 35.9788C137.501 34.9139 139.379 33.0198 141 30.2965L139.797 29.5372C138.807 30.6544 137.979 31.4487 137.313 31.92C136.221 32.7056 135.06 33.0984 133.831 33.0984C131.254 33.0984 129.453 31.6233 128.429 28.673C127.866 27.1019 127.525 25.2427 127.405 23.0955H140.77C140.77 22.6067 140.71 21.8997 140.59 20.9745C140.351 19.0019 139.925 17.3958 139.31 16.1564C138.491 14.5155 137.322 13.2324 135.803 12.3071C134.284 11.3819 132.662 10.9193 130.938 10.9193C127.917 10.9193 125.336 12.0584 123.194 14.3365C121.051 16.6147 119.98 19.8136 119.98 23.9335C119.98 28.4897 121.107 31.8066 123.36 33.8839C125.613 35.9613 128.028 37 130.605 37ZM127.277 21.1054H134.318C134.284 17.9457 134.045 15.7374 133.601 14.4805C133.157 13.2236 132.27 12.5952 130.938 12.5952C129.573 12.5952 128.638 13.3197 128.135 14.7686C127.631 16.2175 127.345 18.3298 127.277 21.1054Z" fill="white"/>
</svg>
